<mxfile host="app.diagrams.net" modified="2024-07-22T01:55:44.503Z" agent="Mozilla/5.0 (Windows NT 10.0; Win64; x64) AppleWebKit/537.36 (KHTML, like Gecko) Chrome/126.0.0.0 Safari/537.36" version="24.7.1" etag="LDvgqzjCUO1YVNqkqBdF" type="github">
  <diagram name="ページ1" id="UkFyXZ4VYc4pGPalOSAI">
    <mxGraphModel>
      <root>
        <mxCell id="0" />
        <mxCell id="1" parent="0" />
      </root>
    </mxGraphModel>
  </diagram>
</mxfile>
